<svg width="21" height="39" viewBox="0 0 21 39" fill="none" xmlns="http://www.w3.org/2000/svg">
<path d="M5.01611 33.9V18L8.21611 14.2V30.1L5.01611 33.9Z" fill="white"/>
<path d="M9.01611 29.2V13.3L12.3161 9.5V25.4L9.01611 29.2Z" fill="white"/>
<path d="M13.116 24.5V8.49995L16.316 4.69995V20.7L13.116 24.5Z" fill="white"/>
<path d="M9.01611 22.7V38.7L12.3161 34.8V18.9L9.01611 22.7Z" fill="#C6CCCF"/>
<path d="M13.116 33.9V18L16.316 14.2V30.1L13.116 33.9Z" fill="#C6CCCF"/>
<path d="M17.116 29.2V13.3L20.416 9.5V25.4L17.116 29.2Z" fill="#C6CCCF"/>
<path d="M0.916016 13.3V29.2L4.11602 25.4V9.5L0.916016 13.3Z" fill="#9BADB6"/>
<path d="M5.01611 24.5V8.49995L8.21611 4.69995V20.7L5.01611 24.5Z" fill="#9BADB6"/>
<path d="M12.3161 0L9.01611 3.8V19.7L12.3161 15.9V0Z" fill="#9BADB6"/>
<path d="M5.01611 33.9V24.5L8.21611 20.7V30.1L5.01611 33.9Z" fill="#F69221"/>
<path d="M5.01611 24.5V18L8.21611 14.2V20.7L5.01611 24.5Z" fill="#A06A28"/>
<path d="M9.01611 22.7V19.7L12.3161 15.9V18.9L9.01611 22.7Z" fill="#F69221"/>
<path d="M9.01611 29.2V22.7L12.3161 18.9V25.4L9.01611 29.2Z" fill="#C47A2A"/>
<path d="M9.01611 19.7V13.3L12.3161 9.5V15.9L9.01611 19.7Z" fill="#A06A28"/>
<path d="M13.116 18V8.49995L16.316 4.69995V14.2L13.116 18Z" fill="#F69221"/>
<path d="M13.116 24.5V18L16.316 14.2V20.7L13.116 24.5Z" fill="#C47A2A"/>
</svg>
